<mxfile modified="2023-05-09T08:07:01.084Z" host="app.diagrams.net" agent="Mozilla/5.0 (Windows NT 10.0; Win64; x64) AppleWebKit/537.36 (KHTML, like Gecko) Chrome/112.0.0.0 Safari/537.36" etag="lVUmMrgJHWLyNDdT8HWc" version="21.2.9" type="github">
  <diagram id="Ht1M8jgEwFfnCIfOTk4-" name="Page-1">
    <mxGraphModel dx="1134" dy="814" grid="1" gridSize="10" guides="1" tooltips="1" connect="1" arrows="1" fold="1" page="1" pageScale="1" pageWidth="1169" pageHeight="827" math="0" shadow="0">
      <root>
        <mxCell id="0" />
        <mxCell id="1" parent="0" />
        <mxCell id="UEzPUAAOIrF-is8g5C7q-129" style="edgeStyle=orthogonalEdgeStyle;rounded=0;orthogonalLoop=1;jettySize=auto;html=1;startArrow=open;startFill=0;endArrow=open;endFill=0;strokeWidth=2;strokeColor=#808080;" parent="1" source="UEzPUAAOIrF-is8g5C7q-114" target="UEzPUAAOIrF-is8g5C7q-115" edge="1">
          <mxGeometry relative="1" as="geometry">
            <Array as="points">
              <mxPoint x="751" y="282" />
              <mxPoint x="751" y="282" />
            </Array>
          </mxGeometry>
        </mxCell>
        <mxCell id="UEzPUAAOIrF-is8g5C7q-142" style="edgeStyle=orthogonalEdgeStyle;rounded=0;orthogonalLoop=1;jettySize=auto;html=1;startArrow=open;startFill=0;endArrow=open;endFill=0;strokeWidth=2;strokeColor=#808080;" parent="1" source="UEzPUAAOIrF-is8g5C7q-114" target="UEzPUAAOIrF-is8g5C7q-115" edge="1">
          <mxGeometry relative="1" as="geometry">
            <mxPoint x="698" y="277" as="sourcePoint" />
            <mxPoint x="831" y="277" as="targetPoint" />
            <Array as="points">
              <mxPoint x="751" y="262" />
              <mxPoint x="751" y="262" />
            </Array>
          </mxGeometry>
        </mxCell>
        <mxCell id="UEzPUAAOIrF-is8g5C7q-113" value="Lambda" style="outlineConnect=0;fontColor=#232F3E;gradientColor=#F78E04;gradientDirection=north;fillColor=#D05C17;strokeColor=#ffffff;dashed=0;verticalLabelPosition=top;verticalAlign=bottom;align=center;html=1;fontSize=12;fontStyle=0;aspect=fixed;shape=mxgraph.aws4.resourceIcon;resIcon=mxgraph.aws4.lambda;labelBackgroundColor=#ffffff;spacingTop=3;labelPosition=center;" parent="1" vertex="1">
          <mxGeometry x="820" y="72" width="78" height="78" as="geometry" />
        </mxCell>
        <mxCell id="UEzPUAAOIrF-is8g5C7q-114" value="Amazon API&lt;br style=&quot;font-size: 12px;&quot;&gt;Gateway&lt;br style=&quot;font-size: 12px;&quot;&gt;" style="outlineConnect=0;fontColor=#232F3E;gradientColor=#945DF2;gradientDirection=north;fillColor=#5A30B5;strokeColor=#ffffff;dashed=0;verticalLabelPosition=top;verticalAlign=bottom;align=center;html=1;fontSize=12;fontStyle=0;aspect=fixed;shape=mxgraph.aws4.resourceIcon;resIcon=mxgraph.aws4.api_gateway;labelBackgroundColor=#ffffff;labelPosition=center;" parent="1" vertex="1">
          <mxGeometry x="610" y="228" width="78" height="78" as="geometry" />
        </mxCell>
        <mxCell id="UEzPUAAOIrF-is8g5C7q-115" value="Lambda&lt;br&gt;function" style="outlineConnect=0;fontColor=#232F3E;gradientColor=none;fillColor=#D05C17;strokeColor=none;dashed=0;verticalLabelPosition=bottom;verticalAlign=top;align=left;html=1;fontSize=12;fontStyle=0;aspect=fixed;pointerEvents=1;shape=mxgraph.aws4.lambda_function;labelBackgroundColor=#ffffff;labelPosition=right;" parent="1" vertex="1">
          <mxGeometry x="821" y="228" width="78" height="78" as="geometry" />
        </mxCell>
        <mxCell id="RWrBoxDSKQDAJAgw1PL6-3" value="Amazon RDS&lt;br&gt;MySQL" style="sketch=0;points=[[0,0,0],[0.25,0,0],[0.5,0,0],[0.75,0,0],[1,0,0],[0,1,0],[0.25,1,0],[0.5,1,0],[0.75,1,0],[1,1,0],[0,0.25,0],[0,0.5,0],[0,0.75,0],[1,0.25,0],[1,0.5,0],[1,0.75,0]];outlineConnect=0;fontColor=#232F3E;gradientColor=#4D72F3;gradientDirection=north;fillColor=#3334B9;strokeColor=#ffffff;dashed=0;verticalLabelPosition=top;verticalAlign=bottom;align=center;html=1;fontSize=12;fontStyle=0;aspect=fixed;shape=mxgraph.aws4.resourceIcon;resIcon=mxgraph.aws4.rds;labelBackgroundColor=default;labelPosition=center;" vertex="1" parent="1">
          <mxGeometry x="1030" y="228" width="78" height="78" as="geometry" />
        </mxCell>
        <mxCell id="RWrBoxDSKQDAJAgw1PL6-15" style="edgeStyle=orthogonalEdgeStyle;rounded=0;orthogonalLoop=1;jettySize=auto;html=1;startArrow=open;startFill=0;endArrow=open;endFill=0;strokeWidth=2;strokeColor=#808080;" edge="1" parent="1">
          <mxGeometry relative="1" as="geometry">
            <mxPoint x="899" y="260.5" as="sourcePoint" />
            <mxPoint x="1032" y="260.5" as="targetPoint" />
            <Array as="points">
              <mxPoint x="962" y="260.5" />
              <mxPoint x="962" y="260.5" />
            </Array>
          </mxGeometry>
        </mxCell>
        <mxCell id="RWrBoxDSKQDAJAgw1PL6-18" style="edgeStyle=orthogonalEdgeStyle;rounded=0;orthogonalLoop=1;jettySize=auto;html=1;startArrow=open;startFill=0;endArrow=open;endFill=0;strokeWidth=2;strokeColor=#808080;" edge="1" parent="1">
          <mxGeometry relative="1" as="geometry">
            <mxPoint x="899" y="282" as="sourcePoint" />
            <mxPoint x="1032" y="282" as="targetPoint" />
            <Array as="points">
              <mxPoint x="962" y="282" />
              <mxPoint x="962" y="282" />
            </Array>
          </mxGeometry>
        </mxCell>
        <mxCell id="RWrBoxDSKQDAJAgw1PL6-19" value="" style="endArrow=classic;html=1;rounded=0;strokeWidth=2;strokeColor=#999999;" edge="1" parent="1" target="UEzPUAAOIrF-is8g5C7q-115">
          <mxGeometry width="50" height="50" relative="1" as="geometry">
            <mxPoint x="860" y="152" as="sourcePoint" />
            <mxPoint x="870" y="92" as="targetPoint" />
          </mxGeometry>
        </mxCell>
        <mxCell id="RWrBoxDSKQDAJAgw1PL6-20" value="EC2 管理サーバ" style="sketch=0;points=[[0,0,0],[0.25,0,0],[0.5,0,0],[0.75,0,0],[1,0,0],[0,1,0],[0.25,1,0],[0.5,1,0],[0.75,1,0],[1,1,0],[0,0.25,0],[0,0.5,0],[0,0.75,0],[1,0.25,0],[1,0.5,0],[1,0.75,0]];outlineConnect=0;fontColor=#232F3E;gradientColor=#F78E04;gradientDirection=north;fillColor=#D05C17;strokeColor=#ffffff;dashed=0;verticalLabelPosition=top;verticalAlign=bottom;align=center;html=1;fontSize=12;fontStyle=0;aspect=fixed;shape=mxgraph.aws4.resourceIcon;resIcon=mxgraph.aws4.ec2;labelPosition=center;" vertex="1" parent="1">
          <mxGeometry x="400" y="232" width="78" height="78" as="geometry" />
        </mxCell>
        <mxCell id="RWrBoxDSKQDAJAgw1PL6-21" style="edgeStyle=orthogonalEdgeStyle;rounded=0;orthogonalLoop=1;jettySize=auto;html=1;startArrow=open;startFill=0;endArrow=open;endFill=0;strokeWidth=2;strokeColor=#808080;" edge="1" parent="1">
          <mxGeometry relative="1" as="geometry">
            <Array as="points">
              <mxPoint x="540" y="280.5" />
              <mxPoint x="540" y="280.5" />
            </Array>
            <mxPoint x="477" y="280.5" as="sourcePoint" />
            <mxPoint x="610" y="280.5" as="targetPoint" />
          </mxGeometry>
        </mxCell>
        <mxCell id="RWrBoxDSKQDAJAgw1PL6-22" style="edgeStyle=orthogonalEdgeStyle;rounded=0;orthogonalLoop=1;jettySize=auto;html=1;startArrow=open;startFill=0;endArrow=open;endFill=0;strokeWidth=2;strokeColor=#808080;" edge="1" parent="1">
          <mxGeometry relative="1" as="geometry">
            <mxPoint x="477" y="260.5" as="sourcePoint" />
            <mxPoint x="610" y="260.5" as="targetPoint" />
            <Array as="points">
              <mxPoint x="570" y="261" />
              <mxPoint x="570" y="261" />
            </Array>
          </mxGeometry>
        </mxCell>
        <mxCell id="RWrBoxDSKQDAJAgw1PL6-24" value="S3 Media" style="sketch=0;points=[[0,0,0],[0.25,0,0],[0.5,0,0],[0.75,0,0],[1,0,0],[0,1,0],[0.25,1,0],[0.5,1,0],[0.75,1,0],[1,1,0],[0,0.25,0],[0,0.5,0],[0,0.75,0],[1,0.25,0],[1,0.5,0],[1,0.75,0]];outlineConnect=0;fontColor=#232F3E;gradientColor=#60A337;gradientDirection=north;fillColor=#277116;strokeColor=#ffffff;dashed=0;verticalLabelPosition=bottom;verticalAlign=top;align=center;html=1;fontSize=12;fontStyle=0;aspect=fixed;shape=mxgraph.aws4.resourceIcon;resIcon=mxgraph.aws4.s3;" vertex="1" parent="1">
          <mxGeometry x="610" y="422" width="78" height="78" as="geometry" />
        </mxCell>
        <mxCell id="RWrBoxDSKQDAJAgw1PL6-25" value="Amazon&lt;br&gt;CloudFront" style="sketch=0;points=[[0,0,0],[0.25,0,0],[0.5,0,0],[0.75,0,0],[1,0,0],[0,1,0],[0.25,1,0],[0.5,1,0],[0.75,1,0],[1,1,0],[0,0.25,0],[0,0.5,0],[0,0.75,0],[1,0.25,0],[1,0.5,0],[1,0.75,0]];outlineConnect=0;fontColor=#232F3E;gradientColor=#945DF2;gradientDirection=north;fillColor=#5A30B5;strokeColor=#ffffff;dashed=0;verticalLabelPosition=bottom;verticalAlign=top;align=center;html=1;fontSize=12;fontStyle=0;aspect=fixed;shape=mxgraph.aws4.resourceIcon;resIcon=mxgraph.aws4.cloudfront;" vertex="1" parent="1">
          <mxGeometry x="400" y="422" width="78" height="78" as="geometry" />
        </mxCell>
        <mxCell id="RWrBoxDSKQDAJAgw1PL6-26" style="edgeStyle=orthogonalEdgeStyle;rounded=0;orthogonalLoop=1;jettySize=auto;html=1;startArrow=open;startFill=0;endArrow=open;endFill=0;strokeWidth=2;strokeColor=#808080;" edge="1" parent="1">
          <mxGeometry relative="1" as="geometry">
            <Array as="points">
              <mxPoint x="541" y="470.5" />
              <mxPoint x="541" y="470.5" />
            </Array>
            <mxPoint x="478" y="470.5" as="sourcePoint" />
            <mxPoint x="611" y="470.5" as="targetPoint" />
          </mxGeometry>
        </mxCell>
        <mxCell id="RWrBoxDSKQDAJAgw1PL6-27" style="edgeStyle=orthogonalEdgeStyle;rounded=0;orthogonalLoop=1;jettySize=auto;html=1;startArrow=open;startFill=0;endArrow=open;endFill=0;strokeWidth=2;strokeColor=#808080;" edge="1" parent="1">
          <mxGeometry relative="1" as="geometry">
            <mxPoint x="478" y="450.5" as="sourcePoint" />
            <mxPoint x="611" y="450.5" as="targetPoint" />
            <Array as="points">
              <mxPoint x="571" y="451" />
              <mxPoint x="571" y="451" />
            </Array>
          </mxGeometry>
        </mxCell>
        <mxCell id="RWrBoxDSKQDAJAgw1PL6-28" value="" style="edgeStyle=orthogonalEdgeStyle;html=1;endArrow=block;elbow=vertical;startArrow=block;startFill=1;endFill=1;strokeColor=#545B64;rounded=0;" edge="1" parent="1" source="RWrBoxDSKQDAJAgw1PL6-20" target="RWrBoxDSKQDAJAgw1PL6-25">
          <mxGeometry width="100" relative="1" as="geometry">
            <mxPoint x="400" y="382" as="sourcePoint" />
            <mxPoint x="500" y="382" as="targetPoint" />
            <Array as="points">
              <mxPoint x="430" y="372" />
              <mxPoint x="430" y="372" />
            </Array>
          </mxGeometry>
        </mxCell>
        <mxCell id="RWrBoxDSKQDAJAgw1PL6-29" value="" style="edgeStyle=orthogonalEdgeStyle;html=1;endArrow=block;elbow=vertical;startArrow=block;startFill=1;endFill=1;strokeColor=#545B64;rounded=0;" edge="1" parent="1">
          <mxGeometry width="100" relative="1" as="geometry">
            <mxPoint x="450" y="310" as="sourcePoint" />
            <mxPoint x="450" y="422" as="targetPoint" />
            <Array as="points">
              <mxPoint x="450" y="362" />
              <mxPoint x="450" y="362" />
            </Array>
          </mxGeometry>
        </mxCell>
        <mxCell id="RWrBoxDSKQDAJAgw1PL6-31" value="親機" style="sketch=0;points=[[0,0,0],[0.25,0,0],[0.5,0,0],[0.75,0,0],[1,0,0],[0,1,0],[0.25,1,0],[0.5,1,0],[0.75,1,0],[1,1,0],[0,0.25,0],[0,0.5,0],[0,0.75,0],[1,0.25,0],[1,0.5,0],[1,0.75,0]];outlineConnect=0;fontColor=#232F3E;gradientColor=#F54749;gradientDirection=north;fillColor=#C7131F;strokeColor=#ffffff;dashed=0;verticalLabelPosition=top;verticalAlign=bottom;align=center;html=1;fontSize=12;fontStyle=0;aspect=fixed;shape=mxgraph.aws4.resourceIcon;resIcon=mxgraph.aws4.mobile;labelPosition=center;" vertex="1" parent="1">
          <mxGeometry x="210" y="232" width="78" height="78" as="geometry" />
        </mxCell>
        <mxCell id="RWrBoxDSKQDAJAgw1PL6-32" value="子機" style="html=1;verticalLabelPosition=bottom;align=center;labelBackgroundColor=#ffffff;verticalAlign=top;strokeWidth=2;strokeColor=#0080F0;shadow=0;dashed=0;shape=mxgraph.ios7.icons.smartphone;flipV=1;" vertex="1" parent="1">
          <mxGeometry x="100" y="550" width="40" height="80" as="geometry" />
        </mxCell>
        <mxCell id="RWrBoxDSKQDAJAgw1PL6-33" value="子機" style="shape=image;html=1;verticalAlign=top;verticalLabelPosition=bottom;labelBackgroundColor=#ffffff;imageAspect=0;aspect=fixed;image=https://cdn0.iconfinder.com/data/icons/devices-42/1600/Watch_2-128.png" vertex="1" parent="1">
          <mxGeometry x="186" y="526" width="128" height="128" as="geometry" />
        </mxCell>
        <mxCell id="RWrBoxDSKQDAJAgw1PL6-35" value="" style="edgeStyle=orthogonalEdgeStyle;html=1;endArrow=none;elbow=vertical;startArrow=block;startFill=1;strokeColor=#545B64;rounded=0;" edge="1" parent="1">
          <mxGeometry width="100" relative="1" as="geometry">
            <mxPoint x="400" y="430" as="sourcePoint" />
            <mxPoint x="500" y="430" as="targetPoint" />
          </mxGeometry>
        </mxCell>
        <mxCell id="RWrBoxDSKQDAJAgw1PL6-38" value="" style="edgeStyle=orthogonalEdgeStyle;html=1;endArrow=none;elbow=vertical;startArrow=block;startFill=1;strokeColor=#545B64;rounded=0;entryX=0.5;entryY=0;entryDx=0;entryDy=0;exitX=0.5;exitY=1;exitDx=0;exitDy=0;exitPerimeter=0;" edge="1" parent="1" source="RWrBoxDSKQDAJAgw1PL6-40" target="RWrBoxDSKQDAJAgw1PL6-33">
          <mxGeometry width="100" relative="1" as="geometry">
            <mxPoint x="220" y="281" as="sourcePoint" />
            <mxPoint x="126" y="493" as="targetPoint" />
          </mxGeometry>
        </mxCell>
        <mxCell id="RWrBoxDSKQDAJAgw1PL6-41" value="" style="edgeStyle=orthogonalEdgeStyle;html=1;endArrow=none;elbow=vertical;startArrow=block;startFill=1;strokeColor=#545B64;rounded=0;entryX=0.5;entryY=0;entryDx=0;entryDy=0;exitX=0.5;exitY=1;exitDx=0;exitDy=0;exitPerimeter=0;" edge="1" parent="1" source="RWrBoxDSKQDAJAgw1PL6-31" target="RWrBoxDSKQDAJAgw1PL6-40">
          <mxGeometry width="100" relative="1" as="geometry">
            <mxPoint x="249" y="310" as="sourcePoint" />
            <mxPoint x="249" y="470" as="targetPoint" />
          </mxGeometry>
        </mxCell>
        <mxCell id="RWrBoxDSKQDAJAgw1PL6-40" value="" style="image;html=1;image=img/lib/clip_art/general/Bluetooth_128x128.png" vertex="1" parent="1">
          <mxGeometry x="210" y="350" width="80" height="80" as="geometry" />
        </mxCell>
        <mxCell id="RWrBoxDSKQDAJAgw1PL6-42" value="" style="edgeStyle=orthogonalEdgeStyle;html=1;endArrow=none;elbow=vertical;startArrow=block;startFill=1;strokeColor=#545B64;rounded=0;exitX=0;exitY=0.5;exitDx=0;exitDy=0;entryX=0.65;entryY=0.913;entryDx=0;entryDy=0;entryPerimeter=0;" edge="1" parent="1" source="RWrBoxDSKQDAJAgw1PL6-40" target="RWrBoxDSKQDAJAgw1PL6-32">
          <mxGeometry width="100" relative="1" as="geometry">
            <mxPoint x="100" y="400" as="sourcePoint" />
            <mxPoint x="106" y="490" as="targetPoint" />
          </mxGeometry>
        </mxCell>
        <mxCell id="RWrBoxDSKQDAJAgw1PL6-43" value="HTTPS" style="edgeStyle=orthogonalEdgeStyle;html=1;endArrow=block;elbow=vertical;startArrow=none;endFill=1;strokeColor=#545B64;rounded=0;exitX=1;exitY=0.5;exitDx=0;exitDy=0;exitPerimeter=0;entryX=0;entryY=0.5;entryDx=0;entryDy=0;entryPerimeter=0;" edge="1" parent="1" source="RWrBoxDSKQDAJAgw1PL6-31" target="RWrBoxDSKQDAJAgw1PL6-20">
          <mxGeometry width="100" relative="1" as="geometry">
            <mxPoint x="310" y="220" as="sourcePoint" />
            <mxPoint x="400" y="270" as="targetPoint" />
          </mxGeometry>
        </mxCell>
      </root>
    </mxGraphModel>
  </diagram>
</mxfile>
